# xmcd
#
# Track frame offsets: 
#        150
#        12890
#        24990
#        38302
#        49637
#        61085
#        71400
#        83102
#        94300
#        106244
#        118563
#        130370
#        142464
#        155521
#        168687
#        179318
#        191562
#        204007
#        216850
#        227089
#
# Disc length: 3151 seconds
#
# Revision: 0
# Processed by: cddbd v1.5.2PL0 Copyright (c) Steve Scherf et al.
# Submitted via: ExactAudioCopy v0.99pb5
#
DISCID=0c0c4d14
DTITLE=Flatts and Scruggs - Mountain Breakdown - 2
DYEAR=1900
DGENRE=Bluegrass
TTITLE0=Pain in my heart
TTITLE1=Roll in my sweet baby's arms
TTITLE2=Back to the Cross
TTITLE3=Farewell Blues
TTITLE4=Salty Dog Blues
TTITLE5=Take me in a lifeboat
TTITLE6=Will the roses bloom (where she lies sleeping)?
TTITLE7=I'll just pretend
TTITLE8=Come back, Darling
TTITLE9=We can't be darlings anymore
TTITLE10=My darling's last goodbye
TTITLE11=Don't get above your raisin'
TTITLE12=I'm gonna settle down
TTITLE13='Tis sweet to be remembered
TTITLE14=Get in line, Brother (if you want to go home)
TTITLE15=Why did you wander?
TTITLE16=Thinking about you
TTITLE17=Reunion in Heavan
TTITLE18=Foggy Mountain Chimes
TTITLE19=Foggy Mountain Special
EXTD=
EXTT0=
EXTT1=
EXTT2=
EXTT3=
EXTT4=
EXTT5=
EXTT6=
EXTT7=
EXTT8=
EXTT9=
EXTT10=
EXTT11=
EXTT12=
EXTT13=
EXTT14=
EXTT15=
EXTT16=
EXTT17=
EXTT18=
EXTT19=
PLAYORDER=
